<svg width="371" height="278" viewBox="0 0 371 278" fill="none" xmlns="http://www.w3.org/2000/svg">
<g clip-path="url(#clip0_1_2)">
<rect width="371" height="278" fill="white"/>
<path d="M205.698 323.911C137.584 323.911 82.3621 268.689 82.3621 200.467C82.3621 132.245 137.584 77.1308 205.698 77.1308C273.813 77.1308 329.035 132.353 329.035 200.467C329.035 221.847 323.556 242.045 313.994 259.557L360.191 319.506C386.191 286.416 401.769 244.623 401.769 199.285C401.769 91.6346 314.531 4.28925 206.773 4.28925C99.0146 4.28925 11.7767 91.6346 11.7767 199.285C11.7767 306.936 99.0146 394.282 206.773 394.282C233.739 394.282 259.309 388.802 282.73 378.918L236.747 319.936C226.863 322.514 216.442 323.911 205.698 323.911Z" fill="#F2F2F2"/>
<path d="M261.887 248.921L267.474 239.896L403.703 416.736H415.736L271.664 229.475L182.922 168.559L217.624 270.408L331.613 416.736H391.24L261.887 248.921Z" fill="#F2F2F2"/>
<rect x="12" y="169" width="364" height="110" fill="url(#paint0_linear_1_2)"/>
</g>
<defs>
<linearGradient id="paint0_linear_1_2" x1="194" y1="169" x2="194" y2="279" gradientUnits="userSpaceOnUse">
<stop stop-color="white" stop-opacity="0"/>
<stop offset="1" stop-color="white"/>
</linearGradient>
<clipPath id="clip0_1_2">
<rect width="371" height="278" fill="white"/>
</clipPath>
</defs>
</svg>
