<svg width="39" height="39" viewBox="0 0 39 39" fill="none" xmlns="http://www.w3.org/2000/svg">
<path d="M18.96 29.87C12.62 29.87 7.48 24.73 7.48 18.38C7.48 12.03 12.62 6.9 18.96 6.9C25.3 6.9 30.44 12.04 30.44 18.38C30.44 20.37 29.93 22.25 29.04 23.88L33.34 29.46C35.76 26.38 37.21 22.49 37.21 18.27C37.21 8.25 29.09 0.12 19.06 0.12C9.03 0.12 0.91 8.25 0.91 18.27C0.91 28.29 9.03 36.42 19.06 36.42C21.57 36.42 23.95 35.91 26.13 34.99L21.85 29.5C20.93 29.74 19.96 29.87 18.96 29.87Z" fill="#F2F2F2"/>
<path d="M24.19 22.89L24.71 22.05L37.39 38.51H38.51L25.1 21.08L16.84 15.41L20.07 24.89L30.68 38.51H36.23L24.19 22.89Z" fill="#F2F2F2"/>
</svg>
