<?xml version="1.0" encoding="utf-8"?><!--Generator: Adobe Illustrator 17.0.0, SVG Export Plug-In . SVG Version: 6.00 Build 0)--><!DOCTYPE svg PUBLIC "-//W3C//DTD SVG 1.1//EN" "http://www.w3.org/Graphics/SVG/1.1/DTD/svg11.dtd"><svg version="1.1" id="Layer_1" xmlns="http://www.w3.org/2000/svg" xmlns:xlink="http://www.w3.org/1999/xlink" x="0px" y="0px" width="256.707px" height="99.213px" viewBox="0 0 256.707 99.213" xml:space="preserve"><g><g><g><path fill="#fff" d="M37.617,39.869V25.472h4.811v14.398H37.617z"/><path fill="#fff" d="M47.166,28.865c-1.438,0-2.604-0.807-2.604-1.797c0-0.99,1.166-1.797,2.604-1.797
				s2.604,0.807,2.604,1.797C49.77,28.058,48.604,28.865,47.166,28.865z M44.76,39.869v-9.886h4.811v9.886H44.76z"/><path fill="#fff" d="M58.5,40.108c-4.563,0-7.019-1.797-7.019-5.19c0-3.063,2.133-5.025,6.324-5.025
				c0.471,0,1.066,0.073,1.414,0.147v-4.567h4.811v13.902C62.889,39.796,60.856,40.108,58.5,40.108z M59.219,32.625
				c-0.149-0.055-0.521-0.11-0.868-0.11c-1.339,0-2.058,0.935-2.058,2.366c0,1.687,0.744,2.476,2.108,2.476
				c0.322,0,0.645-0.018,0.818-0.073V32.625z"/></g><g><path fill="#fff" d="M12.383,60.119l-2.38-4.951H9.967v4.951H6.607v-14.61h3.361v8.766h0.035l2.083-4.188h3.798l-2.468,4.634
				l2.713,5.397H12.383z"/><path fill="#fff" d="M20.679,60.361c-2.888,0-4.568-2.252-4.568-5.267s1.68-5.249,4.568-5.249
				c2.888,0,4.568,2.233,4.568,5.249S23.567,60.361,20.679,60.361z M20.679,52.637c-0.753,0-1.173,0.744-1.173,2.419
				c0,1.675,0.42,2.42,1.173,2.42c0.753,0,1.173-0.744,1.173-2.42C21.851,53.382,21.431,52.637,20.679,52.637z"/><path fill="#fff" d="M31.74,60.119v-6.421c0-0.651-0.368-1.024-0.998-1.024c-0.263,0-0.578,0.056-0.753,0.13v7.314h-3.396
				V50.59c1.103-0.428,2.363-0.744,4.113-0.744c3.133,0,4.428,1.21,4.428,3.425v6.849H31.74z"/><path fill="#fff" d="M38.478,48.952c-1.015,0-1.838-0.819-1.838-1.824s0.823-1.824,1.838-1.824s1.838,0.819,1.838,1.824
				S39.493,48.952,38.478,48.952z M36.78,60.119V50.087h3.396v10.032H36.78z"/><path fill="#fff" d="M46.966,60.119v-6.421c0-0.651-0.368-1.024-0.998-1.024c-0.263,0-0.578,0.056-0.753,0.13v7.314H41.82
				V50.59c1.103-0.428,2.363-0.744,4.113-0.744c3.133,0,4.428,1.21,4.428,3.425v6.849H46.966z"/><path fill="#fff" d="M57.782,60.119l-2.38-4.951h-0.035v4.951h-3.361v-14.61h3.361v8.766h0.035l2.083-4.188h3.798
				l-2.468,4.634l2.713,5.397H57.782z"/><path fill="#fff" d="M62.332,60.119v-14.61h3.396v14.61H62.332z"/><path fill="#fff" d="M69.071,48.952c-1.015,0-1.838-0.819-1.838-1.824s0.823-1.824,1.838-1.824
				c1.015,0,1.838,0.819,1.838,1.824S70.086,48.952,69.071,48.952z M67.373,60.119V50.087h3.396v10.032H67.373z"/><path fill="#fff" d="M70.856,64.307v-2.941c0.805-0.223,1.558-0.893,1.558-2.736v-8.543h3.396v8.543
				C75.809,62.818,73.551,64.046,70.856,64.307z M74.111,48.952c-1.015,0-1.838-0.819-1.838-1.824s0.823-1.824,1.838-1.824
				s1.838,0.819,1.838,1.824S75.126,48.952,74.111,48.952z"/><path fill="#fff" d="M83.23,60.119l-2.38-4.951h-0.035v4.951h-3.361v-14.61h3.361v8.766h0.035l2.083-4.188h3.798l-2.468,4.634
				l2.713,5.397H83.23z"/><path fill="#fff" d="M95.954,55.745l-5.671,0.763c0.263,0.726,1.033,1.061,1.978,1.061c0.945,0,1.96-0.242,2.696-0.614
				l0.91,2.661c-0.91,0.447-2.398,0.744-3.886,0.744c-3.431,0-5.023-2.401-5.023-5.267c0-3.071,1.715-5.249,4.656-5.249
				c2.906,0,4.376,2.066,4.376,4.858C95.989,55.057,95.989,55.392,95.954,55.745z M91.526,52.377c-0.788,0-1.47,0.502-1.488,1.935
				l2.678-0.335C92.716,52.972,92.278,52.377,91.526,52.377z"/></g><g><path fill="#fff" d="M77.805,84.326V72.248c0-1.19-0.678-1.925-2.106-1.925c-0.571,0-1.071,0.07-1.464,0.245v13.758h-6.926
				V72.248c0-1.19-0.678-1.925-2.106-1.925c-0.643,0-1.071,0.07-1.464,0.245v13.758h-6.926V66.402c2.071-0.77,4.82-1.4,7.89-1.4
				c3.213,0,5.07,0.805,6.283,1.61c1.25-0.735,3.749-1.61,6.676-1.61c4.534,0,7.069,2.451,7.069,6.442v12.883H77.805z"/><path fill="#fff" d="M105.83,76.099l-11.567,1.435c0.536,1.365,2.106,1.996,4.034,1.996c1.928,0,3.999-0.455,5.498-1.155
				l1.856,5.006c-1.856,0.84-4.891,1.4-7.926,1.4c-6.997,0-10.246-4.516-10.246-9.907c0-5.776,3.499-9.872,9.497-9.872
				c5.926,0,8.925,3.886,8.925,9.137C105.901,74.804,105.901,75.434,105.83,76.099z M96.797,69.762
				c-1.607,0-2.999,0.945-3.035,3.641l5.462-0.63C99.225,70.883,98.332,69.762,96.797,69.762z"/><path fill="#fff" d="M115.433,84.676c-4.32,0-5.891-2.311-5.891-6.827v-7.352h-2.071v-5.041h2.071v-3.851l6.783-1.785v5.636
				h3.07v5.041h-3.07v6.862c0,1.085,0.607,1.365,1.535,1.365c0.535,0,1.178-0.175,1.535-0.35v5.566
				C118.646,84.326,117.004,84.676,115.433,84.676z"/><path fill="#fff" d="M131.034,84.781c-6.355,0-9.461-2.241-9.461-6.406c0-4.866,4.998-6.127,10.782-6.477v-0.49
				c0-1.015-0.785-1.645-2.535-1.645c-1.892,0-4.106,0.56-5.569,1.12l-1.642-4.481c1.785-0.665,4.855-1.4,8.069-1.4
				c5.605,0,8.176,2.101,8.176,7.282v11.098C137.353,84.116,134.283,84.781,131.034,84.781z M132.355,76.064
				c-2.785,0.105-4.356,0.49-4.356,2.136c0,1.295,1.178,1.925,2.82,1.925c0.607,0,1.25-0.035,1.535-0.14V76.064z"/><path fill="#fff" d="M150.847,84.781c-6.355,0-9.461-2.241-9.461-6.406c0-4.866,4.998-6.127,10.782-6.477v-0.49
				c0-1.015-0.785-1.645-2.535-1.645c-1.892,0-4.106,0.56-5.569,1.12l-1.642-4.481c1.785-0.665,4.855-1.4,8.069-1.4
				c5.605,0,8.176,2.101,8.176,7.282v11.098C157.166,84.116,154.096,84.781,150.847,84.781z M152.168,76.064
				c-2.785,0.105-4.356,0.49-4.356,2.136c0,1.295,1.178,1.925,2.82,1.925c0.607,0,1.25-0.035,1.535-0.14V76.064z"/><path fill="#fff" d="M162.021,84.326V56.844h6.926v27.482H162.021z"/><path fill="#fff" d="M181.193,84.781c-5.926,0-8.89-2.1-8.89-7.387V65.456h6.926v12.113c0,1.19,0.678,1.715,1.964,1.715
				c0.643,0,1.178-0.07,1.464-0.175V65.456h6.926v17.924C187.726,84.221,184.406,84.781,181.193,84.781z"/><path fill="#fff" d="M203.434,84.326V72.248c0-1.225-0.75-1.925-2.035-1.925c-0.535,0-1.178,0.105-1.535,0.245v13.758h-6.926
				V66.402c2.249-0.805,4.82-1.4,8.39-1.4c6.391,0,9.033,2.276,9.033,6.442v12.883H203.434z"/><path fill="#fff" d="M213.715,84.326V65.456h6.926v18.869H213.715z"/><path fill="#fff" d="M241.74,76.099l-11.567,1.435c0.535,1.365,2.106,1.996,4.034,1.996c1.928,0,3.999-0.455,5.498-1.155
				l1.856,5.006c-1.856,0.84-4.891,1.4-7.926,1.4c-6.998,0-10.246-4.516-10.246-9.907c0-5.776,3.499-9.872,9.497-9.872
				c5.926,0,8.925,3.886,8.925,9.137C241.811,74.804,241.811,75.434,241.74,76.099z M232.707,69.762
				c-1.607,0-2.999,0.945-3.035,3.641l5.462-0.63C235.135,70.883,234.243,69.762,232.707,69.762z"/></g></g><g><rect x="203.605" y="60.119" fill="#fff" width="27.078" height="1.954"/></g><g><circle fill="#fff" cx="217.351" cy="43.667" r="1.924"/></g><g><g><path fill="#fff" d="M221.648,48.076c-1.127-1.201-2.727-1.953-4.504-1.953c-1.601,0-3.06,0.609-4.157,1.609
				c1.341,1.131,2.194,2.823,2.194,4.715c0,1.811-0.781,3.439-2.024,4.567c1.076,0.911,2.467,1.461,3.987,1.461
				c1.777,0,3.377-0.752,4.504-1.953c-1.071-1.086-1.732-2.577-1.732-4.223S220.578,49.163,221.648,48.076z"/></g><g><path fill="#fff" d="M225.934,46.282c-1.678,0-3.194,0.687-4.286,1.795c1.036,1.104,1.672,2.589,1.672,4.223
				s-0.636,3.118-1.672,4.223c1.091,1.107,2.608,1.795,4.286,1.795c3.323,0,6.018-2.694,6.018-6.018
				C231.951,48.976,229.257,46.282,225.934,46.282z"/></g><g><path fill="#fff" d="M210.968,52.299c0-1.81,0.778-3.437,2.019-4.567c-1.073-0.905-2.458-1.451-3.971-1.451
				c-3.405,0-6.165,2.76-6.165,6.166c0,3.405,2.76,6.165,6.165,6.165c1.594,0,3.047-0.605,4.142-1.598
				C211.819,55.881,210.968,54.19,210.968,52.299z"/></g></g></g></svg>